<?xml version="1.0" encoding="UTF-8" standalone="no"?>
<svg
   xmlns:dc="http://purl.org/dc/elements/1.1/"
   xmlns:cc="http://creativecommons.org/ns#"
   xmlns:rdf="http://www.w3.org/1999/02/22-rdf-syntax-ns#"
   xmlns:svg="http://www.w3.org/2000/svg"
   xmlns="http://www.w3.org/2000/svg"
   xmlns:xlink="http://www.w3.org/1999/xlink"
   width="640"
   height="640"
   viewBox="0 0 169.33333 169.33334"
   version="1.1"
   id="svg8">
  <defs
     id="defs2">
    <linearGradient
       id="linearGradient931">
      <stop
         style="stop-color:#ff0000;stop-opacity:1;"
         offset="0"
         id="stop927" />
      <stop
         style="stop-color:#ffbd00;stop-opacity:1"
         offset="1"
         id="stop929" />
    </linearGradient>
    <linearGradient
       xlink:href="#linearGradient931"
       id="linearGradient933"
       x1="12.410269"
       y1="155.59402"
       x2="124.53622"
       y2="3.060847"
       gradientUnits="userSpaceOnUse" />
    <linearGradient
       xlink:href="#linearGradient931"
       id="linearGradient941"
       gradientUnits="userSpaceOnUse"
       x1="14.206744"
       y1="153.52914"
       x2="136.35181"
       y2="76.043205" />
  </defs>
  <metadata
     id="metadata5">
    <rdf:RDF>
      <cc:Work
         rdf:about="">
        <dc:format>image/svg+xml</dc:format>
        <dc:type
           rdf:resource="http://purl.org/dc/dcmitype/StillImage" />
        <dc:title></dc:title>
      </cc:Work>
    </rdf:RDF>
  </metadata>
  <g
     id="layer1">
    <path
       style="fill:url(#linearGradient933);stroke:#ff5555;stroke-width:0.264583px;stroke-linecap:butt;stroke-linejoin:miter;stroke-opacity:1;fill-opacity:1"
       d="m 126.18783,24.280231 c -0.14827,0.288076 -1.42168,-0.01805 -3.72592,-0.829142 -2.11397,-0.74303 -15.74523,-6.33922 -25.650231,-8.381078 -7.230402,-1.48 -16.643063,-2.348255 -25.625914,0.263477 -7.384568,2.152709 -15.081028,6.780436 -19.257487,14.136397 -1.917801,3.313077 -3.16869,7.153566 -3.308841,11.065262 -0.136476,3.699238 0.677802,7.569371 2.550082,10.821157 2.673237,4.944514 8.046914,8.61064 14.195161,10.865064 5.929872,2.129614 12.587718,2.673428 19.845795,3.01765 6.803518,0.266979 14.442769,0.292076 22.113595,1.575039 7.54934,1.209024 15.46124,4.072514 21.96899,9.649253 1.90327,1.694696 3.60095,3.588089 5.0783,5.637549 3.92035,5.438519 6.20274,11.851851 6.76334,18.328401 0.77913,9.15237 -1.57911,18.08329 -5.88011,25.52917 -4.47235,7.74121 -10.77813,13.93006 -17.66347,18.5116 -7.24439,4.82625 -15.09775,8.05841 -22.735342,10.23132 -8.389063,2.42498 -16.795418,3.63879 -25.029256,3.28862 -9.095582,-0.3809 -17.575343,-2.84307 -24.658121,-7.04972 -8.146259,-4.83899 -13.951601,-12.019 -16.844883,-19.4938 -3.722437,-9.65295 -2.266684,-19.03434 1.029749,-25.44377 3.615793,-6.94218 8.968656,-10.378941 12.632187,-11.984051 3.66353,-1.60511 5.829808,-1.601177 5.943132,-1.208961 0.113324,0.392215 -1.795088,1.174371 -4.789646,3.279123 -2.994558,2.104752 -7.244289,5.778859 -9.672055,11.827609 -2.281316,5.5813 -2.759878,13.43528 0.692831,21.11442 2.679893,5.98955 7.79072,11.5841 14.743354,15.38189 6.025493,3.29303 13.308728,5.05047 21.177022,5.18184 7.150009,0.11441 14.562499,-1.20602 22.187868,-3.56182 6.917539,-2.17213 13.86519,-5.15996 19.97794,-9.42015 5.78482,-4.03758 11.01933,-9.24899 14.48065,-15.49224 3.31176,-5.97321 5.1674,-12.98852 4.48381,-19.78062 -0.46941,-4.751139 -2.15573,-9.522862 -4.94073,-13.419417 C 125.21986,86.451549 124.02245,85.119524 122.69,83.966788 118.27218,79.929224 111.98337,77.790331 105.62274,76.5749 99.086989,75.381772 91.822793,75.326618 84.750938,74.936016 77.191633,74.578047 69.570768,73.724 62.181185,71.05175 54.323341,68.256701 47.397464,62.964389 43.341027,55.655958 40.711273,50.710755 39.698012,45.242514 40.070288,40.046258 40.466259,34.582854 42.286909,29.513812 44.991101,25.242378 51.030905,15.833845 60.525378,10.598249 69.454181,8.5727309 80.221816,6.1268395 90.467098,7.704686 98.094561,9.9440797 110.04609,13.43763 120.22904,19.692498 123.31085,21.756446 c 2.04147,1.365917 3.02525,2.235709 2.87698,2.523785 z"
       id="path32" />
    <path
       style="fill:url(#linearGradient941);stroke:none;stroke-width:0.264583px;stroke-linecap:butt;stroke-linejoin:miter;stroke-opacity:1;fill-opacity:1"
       d="m 126.18783,24.280231 c -0.14827,0.288076 -1.42168,-0.01805 -3.72592,-0.829142 -2.11397,-0.74303 -15.74523,-6.33922 -25.650231,-8.381078 -7.230402,-1.48 -16.643063,-2.348255 -25.625914,0.263477 -7.384568,2.152709 -15.081028,6.780436 -19.257487,14.136397 -1.917801,3.313077 -3.16869,7.153566 -3.308841,11.065262 -0.136476,3.699238 0.677802,7.569371 2.550082,10.821157 2.673237,4.944514 8.046914,8.61064 14.195161,10.865064 5.929872,2.129614 12.587718,2.673428 19.845795,3.01765 6.803518,0.266979 14.442769,0.292076 22.113595,1.575039 7.54934,1.209024 15.46124,4.072514 21.96899,9.649253 1.90327,1.694696 3.60095,3.588089 5.0783,5.637549 3.92035,5.438519 6.20274,11.851851 6.76334,18.328401 0.77913,9.15237 -1.57911,18.08329 -5.88011,25.52917 -4.47235,7.74121 -10.77813,13.93006 -17.66347,18.5116 -7.24439,4.82625 -15.09775,8.05841 -22.735342,10.23132 -8.389063,2.42498 -16.795418,3.63879 -25.029256,3.28862 -9.095582,-0.3809 -17.575343,-2.84307 -24.658121,-7.04972 -8.146259,-4.83899 -13.951601,-12.019 -16.844883,-19.4938 -3.722437,-9.65295 -2.266684,-19.03434 1.029749,-25.44377 3.615793,-6.94218 8.968656,-10.378941 12.632187,-11.984051 3.66353,-1.60511 5.829808,-1.601177 5.943132,-1.208961 0.113324,0.392215 -1.795088,1.174371 -4.789646,3.279123 -2.994558,2.104752 -7.244289,5.778859 -9.672055,11.827609 -2.281316,5.5813 -2.759878,13.43528 0.692831,21.11442 2.679893,5.98955 7.79072,11.5841 14.743354,15.38189 6.025493,3.29303 13.308728,5.05047 21.177022,5.18184 7.150009,0.11441 14.562499,-1.20602 22.187868,-3.56182 6.917539,-2.17213 13.86519,-5.15996 19.97794,-9.42015 5.78482,-4.03758 11.01933,-9.24899 14.48065,-15.49224 3.31176,-5.97321 5.1674,-12.98852 4.48381,-19.78062 -0.46941,-4.751139 -2.15573,-9.522862 -4.94073,-13.419417 C 125.21986,86.451549 124.02245,85.119524 122.69,83.966788 118.27218,79.929224 111.98337,77.790331 105.62274,76.5749 99.086989,75.381772 91.822793,75.326618 84.750938,74.936016 77.191633,74.578047 69.570768,73.724 62.181185,71.05175 54.323341,68.256701 47.397464,62.964389 43.341027,55.655958 40.711273,50.710755 39.698012,45.242514 40.070288,40.046258 40.466259,34.582854 42.286909,29.513812 44.991101,25.242378 51.030905,15.833845 60.525378,10.598249 69.454181,8.5727309 80.221816,6.1268395 90.467098,7.704686 98.094561,9.9440797 110.04609,13.43763 120.22904,19.692498 123.31085,21.756446 c 2.04147,1.365917 3.02525,2.235709 2.87698,2.523785 z"
       id="path935" />
    <path
       style="fill:#ff2a2a;fill-opacity:1;stroke:none;stroke-width:1.01015"
       d="m 181.7683,575.64932 c -16.05734,-8.03724 -28.37795,-16.69419 -39.64726,-27.85777 -10.7232,-10.62259 -14.08004,-14.83376 -22.62043,-28.37738 -13.20496,-20.94085 -18.75134,-38.11436 -19.59847,-60.68364 -0.631626,-16.82781 0.31498,-28.03083 2.19408,-25.96673 0.69378,0.76207 5.05628,7.45537 9.69446,14.87401 7.12199,11.39141 8.79897,14.92494 10.78668,22.72843 5.23801,20.56365 19.78914,43.50384 37.0935,58.4787 6.99989,6.05757 9.3585,9.14836 21.28968,27.89853 15.34874,24.12095 16.08756,25.39326 14.74574,25.39326 -0.53734,0 -6.80943,-2.91934 -13.93798,-6.48741 z"
       id="path995"
       transform="scale(0.26458333)" />
  </g>
</svg>
