<svg width="68" height="17" viewBox="0 0 68 17" fill="none" xmlns="http://www.w3.org/2000/svg">
<path d="M2.57812 9.71094L8.69141 12.1816V14.0957L0.703125 10.3945V8.96875L8.69141 5.27734V7.19141L2.57812 9.71094ZM16.0156 9.66211C14.4076 9.19987 13.2357 8.63346 12.5 7.96289C11.7708 7.28581 11.4062 6.45247 11.4062 5.46289C11.4062 4.3431 11.8522 3.41862 12.7441 2.68945C13.6426 1.95378 14.8079 1.58594 16.2402 1.58594C17.2168 1.58594 18.0859 1.77474 18.8477 2.15234C19.6159 2.52995 20.2083 3.05078 20.625 3.71484C21.0482 4.37891 21.2598 5.10482 21.2598 5.89258H19.375C19.375 5.0332 19.1016 4.35938 18.5547 3.87109C18.0078 3.3763 17.2363 3.12891 16.2402 3.12891C15.3158 3.12891 14.5931 3.33398 14.0723 3.74414C13.5579 4.14779 13.3008 4.71094 13.3008 5.43359C13.3008 6.01302 13.5449 6.50456 14.0332 6.9082C14.528 7.30534 15.3646 7.66992 16.543 8.00195C17.7279 8.33398 18.6523 8.70182 19.3164 9.10547C19.987 9.5026 20.4818 9.9681 20.8008 10.502C21.1263 11.0358 21.2891 11.6641 21.2891 12.3867C21.2891 13.5391 20.8398 14.4635 19.9414 15.1602C19.043 15.8503 17.8418 16.1953 16.3379 16.1953C15.3613 16.1953 14.4499 16.0098 13.6035 15.6387C12.7572 15.2611 12.1029 14.7467 11.6406 14.0957C11.1849 13.4447 10.957 12.7057 10.957 11.8789H12.8418C12.8418 12.7383 13.1576 13.4186 13.7891 13.9199C14.4271 14.4147 15.2767 14.6621 16.3379 14.6621C17.3275 14.6621 18.0859 14.4603 18.6133 14.0566C19.1406 13.653 19.4043 13.1029 19.4043 12.4062C19.4043 11.7096 19.1602 11.1725 18.6719 10.7949C18.1836 10.4108 17.2982 10.0332 16.0156 9.66211ZM25.8691 2.875V5.43359H27.8418V6.83008H25.8691V13.3828C25.8691 13.806 25.957 14.125 26.1328 14.3398C26.3086 14.5482 26.6081 14.6523 27.0312 14.6523C27.2396 14.6523 27.526 14.6133 27.8906 14.5352V16C27.4154 16.1302 26.9531 16.1953 26.5039 16.1953C25.6966 16.1953 25.0879 15.9512 24.6777 15.4629C24.2676 14.9746 24.0625 14.2812 24.0625 13.3828V6.83008H22.1387V5.43359H24.0625V2.875H25.8691ZM35.0684 7.05469C34.7949 7.00911 34.4987 6.98633 34.1797 6.98633C32.9948 6.98633 32.1908 7.49089 31.7676 8.5V16H29.9609V5.43359H31.7188L31.748 6.6543C32.3405 5.71029 33.1803 5.23828 34.2676 5.23828C34.6191 5.23828 34.8861 5.28385 35.0684 5.375V7.05469ZM38.7012 16H36.8945V5.43359H38.7012V16ZM36.748 2.63086C36.748 2.33789 36.8359 2.09049 37.0117 1.88867C37.194 1.68685 37.4609 1.58594 37.8125 1.58594C38.1641 1.58594 38.431 1.68685 38.6133 1.88867C38.7956 2.09049 38.8867 2.33789 38.8867 2.63086C38.8867 2.92383 38.7956 3.16797 38.6133 3.36328C38.431 3.55859 38.1641 3.65625 37.8125 3.65625C37.4609 3.65625 37.194 3.55859 37.0117 3.36328C36.8359 3.16797 36.748 2.92383 36.748 2.63086ZM42.4902 16V6.83008H40.8203V5.43359H42.4902V4.34961C42.4902 3.2168 42.793 2.34115 43.3984 1.72266C44.0039 1.10417 44.86 0.794922 45.9668 0.794922C46.3835 0.794922 46.7969 0.85026 47.207 0.960938L47.1094 2.42578C46.8034 2.36719 46.4779 2.33789 46.1328 2.33789C45.5469 2.33789 45.0944 2.51042 44.7754 2.85547C44.4564 3.19401 44.2969 3.68229 44.2969 4.32031V5.43359H46.5527V6.83008H44.2969V16H42.4902ZM52.7051 16.1953C51.2728 16.1953 50.1074 15.7266 49.209 14.7891C48.3105 13.8451 47.8613 12.5853 47.8613 11.0098V10.6777C47.8613 9.62956 48.0599 8.69531 48.457 7.875C48.8607 7.04818 49.4206 6.40365 50.1367 5.94141C50.8594 5.47266 51.6406 5.23828 52.4805 5.23828C53.8542 5.23828 54.9219 5.69076 55.6836 6.5957C56.4453 7.50065 56.8262 8.79622 56.8262 10.4824V11.2344H49.668C49.694 12.276 49.9967 13.1191 50.5762 13.7637C51.1621 14.4017 51.9043 14.7207 52.8027 14.7207C53.4408 14.7207 53.9811 14.5905 54.4238 14.3301C54.8665 14.0697 55.2539 13.7246 55.5859 13.2949L56.6895 14.1543C55.804 15.515 54.4759 16.1953 52.7051 16.1953ZM52.4805 6.72266C51.7513 6.72266 51.1393 6.98958 50.6445 7.52344C50.1497 8.05078 49.8438 8.79297 49.7266 9.75H55.0195V9.61328C54.9674 8.69531 54.7201 7.98568 54.2773 7.48438C53.8346 6.97656 53.2357 6.72266 52.4805 6.72266ZM65.3223 9.65234L58.8672 7.12305V5.26758L67.207 8.95898V10.3848L58.8672 14.0859V12.2109L65.3223 9.65234Z" fill="black"/>
</svg>
